<svg width="32" height="33" viewBox="0 0 32 33" fill="none" xmlns="http://www.w3.org/2000/svg">
<path d="M16 19.238L14.6667 20.5713M18.3333 24.9046L16.6667 26.798M23.7 8.10996C19.7284 8.94434 16.0855 10.9166 13.2157 13.7861C10.3459 16.6557 8.37338 20.2984 7.53867 24.27M25.0667 12.9713C23.7052 13.3426 22.547 14.2395 21.8469 15.4648C21.1468 16.69 20.962 18.1432 21.3333 19.5046C21.7046 20.8661 22.6016 22.0243 23.8268 22.7244C25.052 23.4245 26.5052 23.6093 27.8667 23.238M29.2853 28.214C29.3489 28.4417 29.3507 28.6821 29.2907 28.9108C29.2308 29.1394 29.111 29.348 28.9439 29.5152C28.7767 29.6823 28.5682 29.802 28.3395 29.862C28.1109 29.922 27.8704 29.9202 27.6427 29.8566L3.64267 23.19C3.47395 23.143 3.31613 23.0632 3.17824 22.9552C3.04035 22.8472 2.92509 22.7131 2.83903 22.5606C2.75298 22.4081 2.69782 22.2401 2.67671 22.0662C2.6556 21.8923 2.66896 21.716 2.71601 21.5473C3.927 17.1876 6.24479 13.2151 9.44429 10.0156C12.6438 6.81608 16.6163 4.49829 20.976 3.2873C21.1447 3.24024 21.321 3.22689 21.4949 3.248C21.6688 3.26911 21.8368 3.32427 21.9893 3.41032C22.1419 3.49637 22.276 3.61164 22.3839 3.74953C22.4919 3.88742 22.5717 4.04524 22.6187 4.21396L29.2853 28.214Z" stroke="#F4511E" stroke-width="2" stroke-linecap="round" stroke-linejoin="round"/>
</svg>
